<svg width="150" height="39" viewBox="0 0 150 39" fill="none" xmlns="http://www.w3.org/2000/svg">
<path d="M58.8374 26.9395H55.8101V15.1816H51.9331V12.6621H62.7144V15.1816H58.8374V26.9395ZM70.771 15.8164C71.1746 15.8164 71.5099 15.8457 71.7769 15.9043L71.5522 18.6973C71.3114 18.6322 71.0184 18.5996 70.6733 18.5996C69.7228 18.5996 68.9806 18.8438 68.4468 19.332C67.9194 19.8203 67.6558 20.5039 67.6558 21.3828V26.9395H64.6772V16.0215H66.9331L67.3726 17.8574H67.519C67.8576 17.2454 68.3133 16.7539 68.8862 16.3828C69.4657 16.0052 70.0939 15.8164 70.771 15.8164ZM73.6323 13.1992C73.6323 12.2292 74.1727 11.7441 75.2534 11.7441C76.3341 11.7441 76.8745 12.2292 76.8745 13.1992C76.8745 13.6615 76.7378 14.0228 76.4644 14.2832C76.1974 14.5371 75.7938 14.6641 75.2534 14.6641C74.1727 14.6641 73.6323 14.1758 73.6323 13.1992ZM76.7378 26.9395H73.7593V16.0215H76.7378V26.9395ZM85.8687 27.1348C84.5861 27.1348 83.5802 26.6693 82.8511 25.7383H82.6948C82.799 26.6497 82.8511 27.1771 82.8511 27.3203V31.7441H79.8726V16.0215H82.2944L82.7144 17.4375H82.8511C83.5477 16.3568 84.5796 15.8164 85.9468 15.8164C87.2358 15.8164 88.245 16.3145 88.9741 17.3105C89.7033 18.3066 90.0679 19.6901 90.0679 21.4609C90.0679 22.6263 89.8953 23.6387 89.5503 24.498C89.2118 25.3574 88.7267 26.0117 88.0952 26.4609C87.4637 26.9102 86.7215 27.1348 85.8687 27.1348ZM84.9897 18.1992C84.2541 18.1992 83.717 18.4271 83.3784 18.8828C83.0399 19.332 82.8641 20.0775 82.8511 21.1191V21.4414C82.8511 22.6133 83.0236 23.4531 83.3687 23.9609C83.7202 24.4688 84.2736 24.7227 85.0288 24.7227C86.3634 24.7227 87.0308 23.6224 87.0308 21.4219C87.0308 20.3477 86.8647 19.5436 86.5327 19.0098C86.2072 18.4694 85.6929 18.1992 84.9897 18.1992ZM98.1831 18.9219H103.847V26.3242C102.929 26.6237 102.063 26.832 101.25 26.9492C100.442 27.0729 99.6154 27.1348 98.769 27.1348C96.6141 27.1348 94.967 26.5033 93.8276 25.2402C92.6948 23.9707 92.1284 22.151 92.1284 19.7812C92.1284 17.4766 92.786 15.6797 94.1011 14.3906C95.4227 13.1016 97.2521 12.457 99.5894 12.457C101.054 12.457 102.467 12.75 103.828 13.3359L102.822 15.7578C101.78 15.237 100.696 14.9766 99.5698 14.9766C98.2612 14.9766 97.2131 15.416 96.4253 16.2949C95.6375 17.1738 95.2437 18.3555 95.2437 19.8398C95.2437 21.3893 95.5594 22.5742 96.1909 23.3945C96.8289 24.2083 97.7534 24.6152 98.9644 24.6152C99.5959 24.6152 100.237 24.5501 100.888 24.4199V21.4414H98.1831V18.9219ZM114.755 26.9395L114.355 25.543H114.199C113.88 26.0508 113.427 26.4447 112.841 26.7246C112.255 26.998 111.588 27.1348 110.839 27.1348C109.557 27.1348 108.59 26.793 107.939 26.1094C107.288 25.4193 106.962 24.4297 106.962 23.1406V16.0215H109.941V22.3984C109.941 23.1862 110.081 23.7786 110.361 24.1758C110.641 24.5664 111.087 24.7617 111.699 24.7617C112.532 24.7617 113.134 24.485 113.505 23.9316C113.876 23.3717 114.062 22.4473 114.062 21.1582V16.0215H117.041V26.9395H114.755ZM120.039 13.1992C120.039 12.2292 120.579 11.7441 121.66 11.7441C122.74 11.7441 123.281 12.2292 123.281 13.1992C123.281 13.6615 123.144 14.0228 122.871 14.2832C122.604 14.5371 122.2 14.6641 121.66 14.6641C120.579 14.6641 120.039 14.1758 120.039 13.1992ZM123.144 26.9395H120.166V16.0215H123.144V26.9395ZM129.736 27.1348C128.453 27.1348 127.444 26.6367 126.708 25.6406C125.979 24.6445 125.615 23.2643 125.615 21.5C125.615 19.7096 125.986 18.3164 126.728 17.3203C127.477 16.3177 128.505 15.8164 129.814 15.8164C131.188 15.8164 132.236 16.3503 132.958 17.418H133.056C132.906 16.6042 132.832 15.8783 132.832 15.2402V11.7441H135.82V26.9395H133.535L132.958 25.5234H132.832C132.154 26.5977 131.123 27.1348 129.736 27.1348ZM130.781 24.7617C131.542 24.7617 132.099 24.5404 132.451 24.0977C132.809 23.6549 133.004 22.903 133.037 21.8418V21.5195C133.037 20.3477 132.854 19.5078 132.49 19C132.132 18.4922 131.546 18.2383 130.732 18.2383C130.068 18.2383 129.55 18.5215 129.179 19.0879C128.815 19.6478 128.632 20.4648 128.632 21.5391C128.632 22.6133 128.818 23.4206 129.189 23.9609C129.56 24.4948 130.091 24.7617 130.781 24.7617ZM143.457 17.9355C142.825 17.9355 142.33 18.1374 141.972 18.541C141.614 18.9382 141.409 19.5046 141.357 20.2402H145.537C145.524 19.5046 145.332 18.9382 144.96 18.541C144.589 18.1374 144.088 17.9355 143.457 17.9355ZM143.876 27.1348C142.119 27.1348 140.745 26.6497 139.755 25.6797C138.766 24.7096 138.271 23.3359 138.271 21.5586C138.271 19.7292 138.727 18.3164 139.638 17.3203C140.556 16.3177 141.822 15.8164 143.437 15.8164C144.98 15.8164 146.181 16.2559 147.041 17.1348C147.9 18.0137 148.33 19.2279 148.33 20.7773V22.2227H141.289C141.321 23.069 141.572 23.7298 142.041 24.2051C142.509 24.6803 143.167 24.918 144.013 24.918C144.671 24.918 145.292 24.8496 145.878 24.7129C146.464 24.5762 147.076 24.3581 147.714 24.0586V26.3633C147.194 26.6237 146.637 26.8158 146.044 26.9395C145.452 27.0697 144.729 27.1348 143.876 27.1348Z" fill="white"/>
<path d="M22.6851 0.949566C21.3441 0.214336 19.7213 0.211309 18.3776 0.94153L2.72404 9.44814C1.27647 10.2348 0.375197 11.7503 0.375175 13.3978L0.375 26.3696C0.374977 28.0901 1.35698 29.6597 2.9042 30.4122L5.11788 31.4888C5.66163 30.1861 6.32004 28.9179 7.11385 27.7496C11.5261 21.2561 14.632 19.1572 17.5233 17.2354C17.7395 17.0917 17.7471 16.7774 17.5384 16.6231L10.8371 11.6692C10.7301 11.5901 10.7374 11.4278 10.851 11.3586L12.8829 10.1211C12.9863 10.0581 13.1138 10.049 13.2251 10.0966L17.625 11.9793C17.7386 12.0279 17.8687 12.0174 17.973 11.9513L19.5212 10.9697C19.6093 10.9138 19.7262 10.9408 19.7809 11.0297L20.702 12.525C20.7459 12.5964 20.7371 12.6883 20.6804 12.75L20.5198 12.9248C20.4317 13.0207 20.4659 13.1749 20.5862 13.2246L22.6369 14.0718C22.7016 14.0986 22.7755 14.0868 22.8303 14.0432C23.7278 13.329 25.9833 12.1162 28.7432 12.2481C28.9662 12.2588 29.1196 12.4692 29.0415 12.6782C28.637 13.7613 27.351 15.6688 24.4764 17.0359C24.4172 17.064 24.3757 17.121 24.3685 17.186L24.1373 19.286C24.1251 19.3969 24.212 19.4938 24.3235 19.4938H24.5901C24.6592 19.4938 24.7227 19.5318 24.7553 19.5927L25.5533 21.0835C25.5999 21.1706 25.5709 21.2789 25.487 21.3311L23.8115 22.371C23.7635 22.4008 23.7315 22.4506 23.7244 22.5067L23.109 27.3825C23.1013 27.4441 23.0635 27.4978 23.0082 27.526L20.7429 28.68C20.6235 28.7408 20.4808 28.6603 20.4711 28.5266L19.8551 20.026C19.8458 19.8976 19.7138 19.8165 19.5975 19.8717C17.3676 20.9308 13.1967 24.2646 12.6163 30.0985C12.4279 31.9926 12.5422 33.7184 12.8807 35.2642L18.5675 38.03C19.8087 38.6336 21.2584 38.6336 22.4996 38.03L38.163 30.4122C39.7102 29.6597 40.6922 28.0901 40.6922 26.3696V13.4843C40.6922 11.8427 39.7974 10.3317 38.358 9.54257L22.6851 0.949566Z" fill="#316BFF"/>
</svg>
