<svg width="149" height="38" viewBox="0 0 149 38" fill="none" xmlns="http://www.w3.org/2000/svg">
<path d="M57.6318 26.5005H54.6045V14.7427H50.7275V12.2231H61.5088V14.7427H57.6318V26.5005ZM69.5654 15.3774C69.9691 15.3774 70.3044 15.4067 70.5713 15.4653L70.3467 18.2583C70.1058 18.1932 69.8128 18.1606 69.4678 18.1606C68.5173 18.1606 67.7751 18.4048 67.2412 18.8931C66.7139 19.3813 66.4502 20.0649 66.4502 20.9438V26.5005H63.4717V15.5825H65.7275L66.167 17.4185H66.3135C66.652 16.8065 67.1077 16.3149 67.6807 15.9438C68.2601 15.5662 68.8883 15.3774 69.5654 15.3774ZM72.4268 12.7603C72.4268 11.7902 72.9671 11.3052 74.0479 11.3052C75.1286 11.3052 75.6689 11.7902 75.6689 12.7603C75.6689 13.2225 75.5322 13.5838 75.2588 13.8442C74.9919 14.0981 74.5882 14.2251 74.0479 14.2251C72.9671 14.2251 72.4268 13.7368 72.4268 12.7603ZM75.5322 26.5005H72.5537V15.5825H75.5322V26.5005ZM84.6631 26.6958C83.3805 26.6958 82.3747 26.2303 81.6455 25.2993H81.4893C81.5934 26.2108 81.6455 26.7381 81.6455 26.8813V31.3052H78.667V15.5825H81.0889L81.5088 16.9985H81.6455C82.3421 15.9178 83.374 15.3774 84.7412 15.3774C86.0303 15.3774 87.0394 15.8755 87.7686 16.8716C88.4977 17.8677 88.8623 19.2511 88.8623 21.022C88.8623 22.1873 88.6898 23.1997 88.3447 24.0591C88.0062 24.9185 87.5212 25.5728 86.8896 26.022C86.2581 26.4712 85.516 26.6958 84.6631 26.6958ZM83.7842 17.7603C83.0485 17.7603 82.5114 17.9881 82.1729 18.4438C81.8343 18.8931 81.6585 19.6385 81.6455 20.6802V21.0024C81.6455 22.1743 81.818 23.0142 82.1631 23.522C82.5146 24.0298 83.068 24.2837 83.8232 24.2837C85.1579 24.2837 85.8252 23.1834 85.8252 20.9829C85.8252 19.9087 85.6592 19.1047 85.3271 18.5708C85.0016 18.0304 84.4873 17.7603 83.7842 17.7603ZM96.9775 18.4829H102.642V25.8853C101.724 26.1847 100.858 26.3931 100.044 26.5103C99.2367 26.634 98.4098 26.6958 97.5635 26.6958C95.4085 26.6958 93.7614 26.0643 92.6221 24.8013C91.4893 23.5317 90.9229 21.7121 90.9229 19.3423C90.9229 17.0376 91.5804 15.2407 92.8955 13.9517C94.2171 12.6626 96.0465 12.0181 98.3838 12.0181C99.8486 12.0181 101.261 12.311 102.622 12.897L101.616 15.3188C100.575 14.798 99.4906 14.5376 98.3643 14.5376C97.0557 14.5376 96.0075 14.9771 95.2197 15.856C94.432 16.7349 94.0381 17.9165 94.0381 19.4009C94.0381 20.9504 94.3538 22.1353 94.9854 22.9556C95.6234 23.7694 96.5479 24.1763 97.7588 24.1763C98.3903 24.1763 99.0316 24.1112 99.6826 23.981V21.0024H96.9775V18.4829ZM113.55 26.5005L113.149 25.104H112.993C112.674 25.6118 112.222 26.0057 111.636 26.2856C111.05 26.5591 110.382 26.6958 109.634 26.6958C108.351 26.6958 107.384 26.354 106.733 25.6704C106.082 24.9803 105.757 23.9907 105.757 22.7017V15.5825H108.735V21.9595C108.735 22.7472 108.875 23.3397 109.155 23.7368C109.435 24.1274 109.881 24.3228 110.493 24.3228C111.326 24.3228 111.929 24.0461 112.3 23.4927C112.671 22.9328 112.856 22.0083 112.856 20.7192V15.5825H115.835V26.5005H113.55ZM118.833 12.7603C118.833 11.7902 119.373 11.3052 120.454 11.3052C121.535 11.3052 122.075 11.7902 122.075 12.7603C122.075 13.2225 121.938 13.5838 121.665 13.8442C121.398 14.0981 120.994 14.2251 120.454 14.2251C119.373 14.2251 118.833 13.7368 118.833 12.7603ZM121.938 26.5005H118.96V15.5825H121.938V26.5005ZM128.53 26.6958C127.248 26.6958 126.239 26.1978 125.503 25.2017C124.774 24.2056 124.409 22.8254 124.409 21.061C124.409 19.2707 124.78 17.8774 125.522 16.8813C126.271 15.8787 127.3 15.3774 128.608 15.3774C129.982 15.3774 131.03 15.9113 131.753 16.979H131.851C131.701 16.1652 131.626 15.4393 131.626 14.8013V11.3052H134.614V26.5005H132.329L131.753 25.0845H131.626C130.949 26.1587 129.917 26.6958 128.53 26.6958ZM129.575 24.3228C130.337 24.3228 130.894 24.1014 131.245 23.6587C131.603 23.216 131.799 22.464 131.831 21.4028V21.0806C131.831 19.9087 131.649 19.0688 131.284 18.561C130.926 18.0532 130.34 17.7993 129.526 17.7993C128.862 17.7993 128.345 18.0825 127.974 18.6489C127.609 19.2088 127.427 20.0259 127.427 21.1001C127.427 22.1743 127.612 22.9816 127.983 23.522C128.354 24.0558 128.885 24.3228 129.575 24.3228ZM142.251 17.4966C141.619 17.4966 141.125 17.6984 140.767 18.1021C140.409 18.4992 140.203 19.0656 140.151 19.8013H144.331C144.318 19.0656 144.126 18.4992 143.755 18.1021C143.384 17.6984 142.882 17.4966 142.251 17.4966ZM142.671 26.6958C140.913 26.6958 139.539 26.2108 138.55 25.2407C137.56 24.2707 137.065 22.897 137.065 21.1196C137.065 19.2902 137.521 17.8774 138.433 16.8813C139.351 15.8787 140.617 15.3774 142.231 15.3774C143.774 15.3774 144.976 15.8169 145.835 16.6958C146.694 17.5747 147.124 18.7889 147.124 20.3384V21.7837H140.083C140.116 22.63 140.366 23.2909 140.835 23.7661C141.304 24.2414 141.961 24.479 142.808 24.479C143.465 24.479 144.087 24.4106 144.673 24.2739C145.259 24.1372 145.871 23.9191 146.509 23.6196V25.9243C145.988 26.1847 145.431 26.3768 144.839 26.5005C144.246 26.6307 143.524 26.6958 142.671 26.6958Z" fill="#222529"/>
<path d="M22.4618 0.552798C21.1313 -0.180758 19.5213 -0.183779 18.1881 0.54478L2.65771 9.03203C1.22152 9.81689 0.327344 11.3289 0.327322 12.9727L0.327148 25.915C0.327125 27.6315 1.3014 29.1976 2.83645 29.9483L5.03271 31.0225C5.57219 29.7227 6.22542 28.4574 7.01298 27.2918C11.3906 20.8131 14.472 18.719 17.3406 16.8015C17.555 16.6582 17.5626 16.3445 17.3555 16.1906L10.7069 11.248C10.6008 11.1691 10.608 11.0072 10.7207 10.9382L12.7366 9.70345C12.8392 9.64061 12.9657 9.63152 13.0762 9.67904L17.4415 11.5574C17.5541 11.6059 17.6833 11.5954 17.7867 11.5295L19.3227 10.5501C19.4102 10.4944 19.5261 10.5213 19.5804 10.61L20.4942 12.1019C20.5378 12.1731 20.5291 12.2648 20.4728 12.3264L20.3135 12.5008C20.2261 12.5964 20.26 12.7503 20.3793 12.7999L22.4139 13.6452C22.4781 13.6718 22.5514 13.6601 22.6057 13.6166C23.4962 12.9041 25.734 11.694 28.4722 11.8256C28.6934 11.8363 28.8456 12.0462 28.7681 12.2548C28.3668 13.3353 27.0909 15.2385 24.2389 16.6025C24.1803 16.6306 24.139 16.6874 24.1319 16.7523L23.9026 18.8475C23.8904 18.9581 23.9766 19.0548 24.0873 19.0548H24.3518C24.4203 19.0548 24.4833 19.0927 24.5156 19.1535L25.3074 20.6409C25.3537 20.7278 25.3248 20.8359 25.2416 20.8879L23.5793 21.9255C23.5317 21.9552 23.4999 22.0049 23.4929 22.0608L22.8824 26.9256C22.8746 26.987 22.8372 27.0406 22.7823 27.0687L20.5348 28.2201C20.4164 28.2808 20.2747 28.2004 20.2651 28.0671L19.654 19.5858C19.6448 19.4577 19.5138 19.3768 19.3984 19.4319C17.1861 20.4885 13.0479 23.8147 12.4722 29.6354C12.2852 31.5252 12.3986 33.247 12.7345 34.7893L18.3765 37.5488C19.608 38.1511 21.0463 38.1511 22.2777 37.5488L37.8178 29.9483C39.3529 29.1976 40.3271 27.6316 40.3271 25.915V13.059C40.3271 11.4212 39.4394 9.91361 38.0114 9.12624L22.4618 0.552798Z" fill="#316BFF"/>
</svg>
