<svg width="19" height="18" viewBox="0 0 19 18" fill="none" xmlns="http://www.w3.org/2000/svg">
<path d="M18.4969 8.59557L18.4963 8.61244C18.4546 9.741 17.5625 10.6205 16.5021 10.5762C15.4939 10.5346 14.6981 9.66354 14.6587 8.60784L14.6576 8.59135C14.6182 7.46183 15.4457 6.51236 16.5062 6.47018C17.567 6.42838 18.4578 7.30979 18.4972 8.4395C18.499 8.49031 18.499 8.54572 18.4969 8.59557Z" fill="#353945"/>
<path d="M16.7297 14.1474L16.7211 14.1602C16.1509 14.9851 15.0624 15.1611 14.2878 14.5542C13.5549 13.9794 13.3713 12.9009 13.8385 12.0889L13.8466 12.076C14.3519 11.2044 15.4235 10.9345 16.2416 11.4713C17.0599 12.0093 17.3138 13.1515 16.8086 14.0229C16.785 14.0642 16.7571 14.1083 16.7297 14.1474Z" fill="#353945"/>
<path d="M12.4374 17.6264L12.4237 17.6316C11.6139 17.942 10.7207 17.4938 10.4295 16.6313C10.1535 15.814 10.5225 14.9147 11.2499 14.559L11.2634 14.552C12.047 14.1723 12.9716 14.5399 13.3288 15.3751C13.6862 16.2099 13.3405 17.1946 12.5567 17.5756C12.5184 17.5938 12.4763 17.6113 12.4374 17.6264Z" fill="#353945"/>
<path d="M7.1565 17.9563L7.14156 17.9522C6.40355 17.7565 5.9539 16.9594 6.13786 16.1737C6.31247 15.4271 7.00079 14.9583 7.70154 15.081L7.71648 15.0835C8.46745 15.2175 8.97434 15.9735 8.84924 16.7734C8.72378 17.5726 8.01349 18.1133 7.2627 17.9796C7.22778 17.9737 7.19034 17.9649 7.1565 17.9563Z" fill="#353945"/>
<path d="M2.69577 15.1445L2.68587 15.1325C2.24378 14.6092 2.28392 13.8035 2.77587 13.3319C3.24135 12.8859 3.94876 12.9047 4.39733 13.3524L4.40813 13.3633C4.88909 13.8465 4.91105 14.6537 4.45727 15.1666C4.00348 15.6789 3.24567 15.7029 2.76435 15.2195C2.74113 15.1959 2.71683 15.1691 2.69577 15.1445Z" fill="#353945"/>
<path d="M0.512043 10.2606L0.510063 10.2443C0.431762 9.6526 0.818947 9.10577 1.37461 9.02237C1.90094 8.94318 2.39091 9.314 2.50719 9.85584L2.51061 9.87099C2.63373 10.4546 2.28993 11.0335 1.74182 11.1658C1.19443 11.2969 0.650284 10.9303 0.526983 10.3469C0.521043 10.3187 0.515823 10.2884 0.512043 10.2606Z" fill="#353945"/>
<path d="M1.24552 5.02075L1.25254 5.00656C1.45324 4.56423 1.95292 4.3794 2.36801 4.59356C2.76185 4.79661 2.93664 5.28899 2.78237 5.71599L2.77697 5.73075C2.60957 6.189 2.12591 6.41601 1.6957 6.23847C1.2655 6.06053 1.05201 5.54496 1.21887 5.08671C1.22698 5.06466 1.23634 5.04184 1.24552 5.02075Z" fill="#353945"/>
<path d="M4.52733 1.19628L4.53975 1.18861C4.85133 0.994383 5.2522 1.10636 5.43436 1.43844C5.60716 1.75289 5.52004 2.154 5.24518 2.36031L5.23312 2.36913C4.93737 2.5902 4.52895 2.51389 4.32177 2.19848C4.11422 1.88327 4.18604 1.44822 4.48197 1.22734C4.49637 1.2168 4.51221 1.20587 4.52733 1.19628Z" fill="#353945"/>
<path d="M9.15462 0.000958655L9.1701 0.00191736C9.4311 0.0184066 9.62964 0.257501 9.61416 0.535135C9.59922 0.799155 9.39348 1.00374 9.14922 1.00872L9.13374 1.00891C8.87219 1.01352 8.65673 0.791294 8.65241 0.512893C8.64809 0.234109 8.85671 0.00460166 9.11826 0C9.13014 0.000191736 9.14292 0.000383448 9.15462 0.000958655Z" fill="#353945"/>
<path d="M13.5233 1.72155L13.5346 1.73094C13.6628 1.83582 13.6867 2.0312 13.5883 2.16752C13.4949 2.29656 13.3246 2.3257 13.1975 2.23923L13.186 2.2306C13.0497 2.13684 13.0108 1.94396 13.0989 1.7992C13.1867 1.65463 13.3681 1.61302 13.5039 1.70717C13.5098 1.71138 13.5168 1.71675 13.5233 1.72155Z" fill="#353945"/>
<path d="M16.183 5.65921L16.1875 5.67416C16.2066 5.73609 16.1752 5.80339 16.1175 5.8241C16.0622 5.84404 16.0019 5.81432 15.9796 5.75833L15.974 5.74453C15.9495 5.68394 15.9758 5.61415 16.0327 5.58788C16.089 5.56181 16.1551 5.5898 16.179 5.65039C16.1808 5.65326 16.1819 5.65614 16.183 5.65921Z" fill="#353945"/>
</svg>
