<svg width="29" height="29" viewBox="0 0 29 29" fill="none" xmlns="http://www.w3.org/2000/svg">
<path fill-rule="evenodd" clip-rule="evenodd" d="M11.2035 0.246094H5.2876C2.52617 0.246094 0.287598 2.48467 0.287598 5.2461V6.61115H11.2035V28.2461H17.3719V6.61115V0.246094H11.2035ZM28.2876 6.9236H20.5375V0.246149H23.2876C26.049 0.246149 28.2876 2.48473 28.2876 5.24615V6.9236ZM0.287598 9.96378H8.03773V16.612H0.287598V9.96378ZM0.287598 19.9646H8.03773V28.2461H5.2876C2.52617 28.2461 0.287598 26.0075 0.287598 23.2461V19.9646ZM20.5375 19.9646H28.2876V23.2461C28.2876 26.0075 26.049 28.2461 23.2876 28.2461H20.5375V19.9646ZM28.2306 9.96378H20.4805V16.612H28.2306V9.96378Z" fill="#3B3E44"/>
</svg>
