<svg width="47" height="16" viewBox="0 0 47 16" fill="none" xmlns="http://www.w3.org/2000/svg">
<path d="M20.3081 15.2271H16.5684L18.9075 0.763672H22.6471L20.3081 15.2271Z" fill="#00579F"/>
<path d="M33.8648 1.11723C33.1272 0.824584 31.9572 0.501465 30.5105 0.501465C26.8174 0.501465 24.2167 2.47085 24.2007 5.28648C24.17 7.36385 26.0627 8.51767 27.4783 9.21033C28.9252 9.91812 29.417 10.3801 29.417 11.011C29.4023 11.9799 28.2479 12.4266 27.1712 12.4266C25.6781 12.4266 24.878 12.1963 23.6623 11.6572L23.1698 11.4261L22.6465 14.6729C23.5236 15.0725 25.1396 15.4271 26.8174 15.4426C30.7414 15.4426 33.2961 13.5037 33.3264 10.5032C33.3413 8.85674 32.3419 7.59514 30.1872 6.56423C28.8792 5.90245 28.0781 5.45622 28.0781 4.7791C28.0935 4.16354 28.7557 3.53305 30.2322 3.53305C31.448 3.50217 32.3413 3.79441 33.018 4.08685L33.3562 4.24044L33.8648 1.11723Z" fill="#00579F"/>
<path d="M38.8359 10.1032C39.1439 9.27232 40.329 6.05648 40.329 6.05648C40.3134 6.08736 40.6363 5.21023 40.821 4.67177L41.0824 5.91803C41.0824 5.91803 41.7906 9.3801 41.9444 10.1032H38.8359ZM43.4522 0.763672H40.5594C39.6674 0.763672 38.9897 1.02503 38.6048 1.96371L33.0498 15.2269H36.9739C36.9739 15.2269 37.6199 13.4418 37.7587 13.0573H42.5603C42.6677 13.5651 43.0066 15.2269 43.0066 15.2269H46.4692L43.4522 0.763672Z" fill="#00579F"/>
<path d="M13.4446 0.763672L9.78215 10.6264L9.38194 8.62609C8.70482 6.31804 6.58123 3.81039 4.21143 2.56352L7.56613 15.2118H11.5209L17.3992 0.763672H13.4446Z" fill="#00579F"/>
<path d="M6.38125 0.763672H0.36429L0.302734 1.05591C4.99634 2.25615 8.10482 5.14929 9.38196 8.6267L8.07394 1.97946C7.8586 1.05571 7.19682 0.794143 6.38125 0.763672Z" fill="#FAA61A"/>
</svg>
